<svg width="130" height="39" viewBox="0 0 130 39" fill="none" xmlns="http://www.w3.org/2000/svg">
<path fill-rule="evenodd" clip-rule="evenodd" d="M36.9656 38.9111H1.94553C0.875508 38.9111 0 38.0356 0 36.9656V1.94566C0 0.875505 0.875508 0 1.94553 0H36.9656C38.0356 0 38.9111 0.875505 38.9111 1.94566V36.9656C38.9111 38.0356 38.0356 38.9111 36.9656 38.9111" fill="#003DA7"/>
<path fill-rule="evenodd" clip-rule="evenodd" d="M31.5189 33.003V33.003C32.2822 33.003 32.9098 32.486 33.0033 31.8185L32.1763 21.711L24.8908 17.8517V21.6793L17.6808 17.8591V21.7265L11.8687 18.7054L10.8843 5.76526H6.4244L5.7655 31.6006H5.76825C5.76715 31.6154 5.76591 31.6316 5.76591 31.6485C5.76591 32.359 6.36949 32.9394 7.13861 32.9977V33.003H31.5189Z" fill="white"/>
<path fill-rule="evenodd" clip-rule="evenodd" d="M61.6325 13.9259C61.9173 13.9259 62.0599 14.0685 62.0599 14.3377V16.0485C62.0599 16.3497 61.9333 16.4606 61.6325 16.4606H57.4682C57.2782 16.4606 57.2305 16.5238 57.2305 16.6979V18.3298C57.2305 18.5198 57.2782 18.5673 57.4682 18.5673H61.0941C61.3949 18.5673 61.5217 18.6941 61.5217 18.9951V20.6902C61.5217 20.9911 61.3949 21.102 61.0941 21.102H57.4682C57.2782 21.102 57.2305 21.1654 57.2305 21.3398V24.603C57.2305 24.904 57.104 25.0148 56.8032 25.0148H54.8872C54.6181 25.0148 54.4756 24.8722 54.4756 24.603V14.3377C54.4756 14.0365 54.6181 13.9259 54.8872 13.9259H61.6325Z" fill="#1C252C"/>
<path fill-rule="evenodd" clip-rule="evenodd" d="M69.3274 20.5797L68.2982 18.3937L67.2689 20.5797C67.2372 20.6272 67.2215 20.6592 67.2215 20.7063C67.2215 20.7858 67.2849 20.8175 67.3958 20.8175H69.1849C69.3117 20.8175 69.3591 20.7858 69.3591 20.7063C69.3591 20.6592 69.3431 20.6114 69.3274 20.5797M69.1848 14.5282L74.141 24.4926C74.1884 24.5877 74.2201 24.6826 74.2201 24.7778C74.2201 24.9361 74.1093 25.0153 73.8716 25.0153H71.8608C71.4649 25.0153 71.3224 24.9361 71.1801 24.6034L70.5625 23.2885C70.4831 23.1144 70.4357 23.0827 70.2614 23.0827H66.3347C66.1605 23.0827 66.1131 23.1144 66.0339 23.2885L65.4323 24.6034C65.2895 24.9361 65.1473 25.0153 64.767 25.0153H62.8354C62.598 25.0153 62.4712 24.9361 62.4712 24.7778C62.4712 24.6826 62.5029 24.5877 62.5503 24.4926L67.5065 14.5282C67.823 13.8946 68.029 13.6888 68.3458 13.6888C68.6466 13.6888 68.8683 13.8946 69.1848 14.5282" fill="#1C252C"/>
<path fill-rule="evenodd" clip-rule="evenodd" d="M84.5434 23.7321C83.4033 24.6824 81.9624 25.2214 80.3947 25.2214C77.0856 25.2689 74.4413 22.7499 74.5044 19.5341C74.457 16.2234 77.0856 13.6729 80.5215 13.7204C82.089 13.7204 83.4824 14.2746 84.6068 15.2094C84.7333 15.32 84.7967 15.4152 84.7967 15.5103C84.7967 15.5895 84.765 15.6844 84.6859 15.7953L83.7675 17.0942C83.6724 17.2371 83.5773 17.3003 83.4667 17.3003C83.3716 17.3003 83.2607 17.2528 83.1499 17.1737C82.2949 16.5558 81.4082 16.2548 80.5056 16.2548C78.6847 16.2548 77.3547 17.5698 77.3547 19.4864C77.3547 21.34 78.6847 22.6867 80.5056 22.6867C81.4714 22.6867 82.3741 22.3698 83.1816 21.7519C83.3082 21.6567 83.419 21.6093 83.4981 21.6093C83.6092 21.6093 83.6724 21.6727 83.7832 21.7996L84.6859 23.0985C84.749 23.1937 84.781 23.2883 84.781 23.3678C84.781 23.4629 84.7016 23.5895 84.5434 23.7321" fill="#1C252C"/>
<path fill-rule="evenodd" clip-rule="evenodd" d="M86.2208 16.4606C85.9517 16.4606 85.8092 16.3178 85.8092 16.0485V14.3377C85.8092 14.0365 85.9517 13.9259 86.2208 13.9259H94.4544C94.7555 13.9259 94.8664 14.0365 94.8664 14.3377V16.0485C94.8664 16.3178 94.7555 16.4606 94.4544 16.4606H91.9529C91.7787 16.4606 91.7152 16.5238 91.7152 16.6981V24.6033C91.7152 24.8725 91.6044 25.0148 91.3036 25.0148H89.372C89.1026 25.0148 88.9603 24.8725 88.9603 24.6033V16.6981C88.9603 16.5238 88.8966 16.4606 88.7227 16.4606H86.2208Z" fill="#1C252C"/>
<path fill-rule="evenodd" clip-rule="evenodd" d="M101.611 16.2549C99.8534 16.2549 98.5391 17.5696 98.5391 19.4864C98.5391 21.4033 99.8377 22.6868 101.595 22.6868C103.337 22.6868 104.699 21.3715 104.699 19.4864C104.699 17.5539 103.368 16.2549 101.611 16.2549M107.549 19.4707C107.596 22.7814 104.984 25.2686 101.579 25.2212C98.2385 25.2686 95.6256 22.7814 95.689 19.5024C95.6416 16.1914 98.2542 13.6727 101.611 13.7202C105.015 13.6727 107.596 16.1597 107.549 19.4707" fill="#1C252C"/>
<path fill-rule="evenodd" clip-rule="evenodd" d="M113.518 16.4611H112.314C112.124 16.4611 112.077 16.5243 112.077 16.6986V18.7738C112.077 18.9638 112.124 19.0273 112.314 19.0273H113.518C114.832 19.0273 115.449 18.5994 115.449 17.7123C115.449 16.8252 114.832 16.4611 113.518 16.4611V16.4611ZM113.628 13.9259C116.732 13.9259 118.3 15.1614 118.3 17.5693C118.3 19.0903 117.587 20.1674 116.384 20.7853L118.838 24.5081C118.917 24.619 118.949 24.7142 118.949 24.7931C118.949 24.9357 118.822 25.0148 118.584 25.0148H116.447C116.003 25.0148 115.813 24.904 115.576 24.5396L113.787 21.6564C113.676 21.4824 113.581 21.4349 113.375 21.4349H112.314C112.124 21.4349 112.077 21.4824 112.077 21.6724V24.6033C112.077 24.904 111.95 25.0148 111.649 25.0148H109.733C109.464 25.0148 109.322 24.8725 109.322 24.6033V14.3377C109.322 14.0365 109.464 13.9259 109.733 13.9259H113.628Z" fill="#1C252C"/>
<path fill-rule="evenodd" clip-rule="evenodd" d="M119.186 14.1317C119.186 13.9891 119.296 13.9259 119.518 13.9259H121.703C122.099 13.9259 122.242 13.9891 122.447 14.3695L124.633 18.2349L126.818 14.3695C127.023 13.9891 127.166 13.9259 127.562 13.9259H129.668C129.889 13.9259 130 13.9891 130 14.1317C130 14.2111 129.968 14.29 129.905 14.3852L125.994 20.9119V24.603C125.994 24.8722 125.883 25.0148 125.583 25.0148H123.651C123.382 25.0148 123.239 24.8722 123.239 24.603V20.9911L119.28 14.3852C119.217 14.29 119.186 14.2111 119.186 14.1317" fill="#1C252C"/>
</svg>
